<svg xmlns="http://www.w3.org/2000/svg" width="219.856" height="26.968" viewBox="0 0 219.856 26.968"><path d="M271.723,81.112a11.272,11.272,0,0,1-.757,4.2A6.915,6.915,0,0,1,268.6,88.4a7.176,7.176,0,0,1-2.371,1.073,12.809,12.809,0,0,1-3.229.365h-3.936v-16.8q1.336-.153,2.359-.2t1.905-.049a10.786,10.786,0,0,1,4.036.656,6.364,6.364,0,0,1,3.96,4.439,12.481,12.481,0,0,1,.4,3.229m-2.246.138a11.552,11.552,0,0,0-.279-2.615,5.023,5.023,0,0,0-.987-2.073,4.626,4.626,0,0,0-1.885-1.353,7.876,7.876,0,0,0-2.948-.48c-.337,0-.688.009-1.05.025s-.722.05-1.075.1V88h2.1a6.953,6.953,0,0,0,2.873-.531,4.967,4.967,0,0,0,1.9-1.44,5.689,5.689,0,0,0,1.038-2.136,10.578,10.578,0,0,0,.316-2.642" transform="translate(-182.667 -67.799)" fill="#989ba6"/><path d="M289.605,85.514a9.332,9.332,0,0,1-.3,2.385,5.764,5.764,0,0,1-.972,2.03,4.807,4.807,0,0,1-1.728,1.412,5.7,5.7,0,0,1-2.573.53,5.868,5.868,0,0,1-2.56-.5,4.645,4.645,0,0,1-1.7-1.362A5.635,5.635,0,0,1,278.808,88a9.4,9.4,0,0,1-.3-2.41,8.049,8.049,0,0,1,.353-2.4,5.687,5.687,0,0,1,1.06-1.98,5.179,5.179,0,0,1,1.753-1.35,5.612,5.612,0,0,1,2.46-.505,5.719,5.719,0,0,1,2.523.505,4.73,4.73,0,0,1,1.691,1.35,5.539,5.539,0,0,1,.959,1.955,8.906,8.906,0,0,1,.3,2.346m-2.246,0a8.709,8.709,0,0,0-.139-1.551,4.3,4.3,0,0,0-.495-1.388,2.723,2.723,0,0,0-.987-1,3.175,3.175,0,0,0-1.645-.378,3.137,3.137,0,0,0-1.608.378,2.9,2.9,0,0,0-1.026,1,4.366,4.366,0,0,0-.544,1.388,7.367,7.367,0,0,0-.165,1.551,9.274,9.274,0,0,0,.139,1.59,4.258,4.258,0,0,0,.519,1.451,3.215,3.215,0,0,0,1.013,1.06,2.9,2.9,0,0,0,1.621.416,3.075,3.075,0,0,0,1.671-.416,2.908,2.908,0,0,0,1.012-1.06,4.606,4.606,0,0,0,.495-1.451,9.376,9.376,0,0,0,.139-1.59" transform="translate(-187.557 -69.451)" fill="#989ba6"/><path d="M301.16,90.073a3.941,3.941,0,0,0,2.221-.657,2.586,2.586,0,0,0,.63-.6,1.015,1.015,0,0,0,.228-.568v-8.7h.151a1.11,1.11,0,0,0,.139-.013,1.088,1.088,0,0,1,.163-.013,1.949,1.949,0,0,1,1.2.367,1.554,1.554,0,0,1,.492,1.323V91.535h-2.144V90.447a4.569,4.569,0,0,1-1.413,1.02,5.318,5.318,0,0,1-2.347.447,4.673,4.673,0,0,1-2.27-.453,3.013,3.013,0,0,1-1.2-1.161,3.874,3.874,0,0,1-.466-1.551c-.05-.564-.076-1.107-.076-1.627V79.553h.152a1.1,1.1,0,0,0,.139-.013,1.074,1.074,0,0,1,.163-.013,2,2,0,0,1,1.2.355,1.52,1.52,0,0,1,.492,1.314v5.943a7.021,7.021,0,0,0,.139,1.568,1.443,1.443,0,0,0,.568.884,2.213,2.213,0,0,0,.82.38,4.613,4.613,0,0,0,1.022.1" transform="translate(-192.074 -69.494)" fill="#989ba6"/><path d="M314.044,88.844a3.742,3.742,0,0,1-.215-1.047c-.025-.379-.038-.752-.038-1.123V74.867h.151a.972.972,0,0,0,.14-.013,1.179,1.179,0,0,1,.164-.013,2.028,2.028,0,0,1,1.186.351,1.455,1.455,0,0,1,.5,1.278v2h3.758v1.841h-3.758v6.509q0,2.068,1.639,2.069a2.044,2.044,0,0,0,.757-.139,3.286,3.286,0,0,0,.631-.328,4.112,4.112,0,0,0,.466-.367,1.824,1.824,0,0,0,.239-.252,6.909,6.909,0,0,1,.518.731,1.312,1.312,0,0,1,.213.681.779.779,0,0,1-.227.492,2.287,2.287,0,0,1-.631.491,4.122,4.122,0,0,1-1,.38,5.316,5.316,0,0,1-1.3.15,3.83,3.83,0,0,1-2.094-.5,2.748,2.748,0,0,1-1.109-1.388" transform="translate(-196.431 -68.315)" fill="#989ba6"/><path d="M334.732,85.514a9.327,9.327,0,0,1-.3,2.385,5.762,5.762,0,0,1-.972,2.03,4.819,4.819,0,0,1-1.728,1.412,5.705,5.705,0,0,1-2.573.53,5.878,5.878,0,0,1-2.561-.5,4.65,4.65,0,0,1-1.7-1.362A5.633,5.633,0,0,1,323.935,88a9.4,9.4,0,0,1-.3-2.41,8.02,8.02,0,0,1,.353-2.4,5.671,5.671,0,0,1,1.059-1.98,5.175,5.175,0,0,1,1.754-1.35,5.609,5.609,0,0,1,2.459-.505,5.726,5.726,0,0,1,2.523.505,4.717,4.717,0,0,1,1.689,1.35,5.512,5.512,0,0,1,.96,1.955,8.9,8.9,0,0,1,.3,2.346m-2.245,0a8.693,8.693,0,0,0-.14-1.551,4.3,4.3,0,0,0-.494-1.388,2.731,2.731,0,0,0-.988-1,3.176,3.176,0,0,0-1.646-.378,3.131,3.131,0,0,0-1.607.378,2.9,2.9,0,0,0-1.026,1,4.323,4.323,0,0,0-.544,1.388,7.33,7.33,0,0,0-.165,1.551,9.346,9.346,0,0,0,.138,1.59,4.284,4.284,0,0,0,.519,1.451,3.212,3.212,0,0,0,1.014,1.06,2.889,2.889,0,0,0,1.62.416,3.075,3.075,0,0,0,1.671-.416,2.923,2.923,0,0,0,1.013-1.06,4.6,4.6,0,0,0,.494-1.451,9.36,9.36,0,0,0,.14-1.59" transform="translate(-198.906 -69.451)" fill="#989ba6"/><path d="M342.185,79.56a1.94,1.94,0,0,1,1.047.291,1.293,1.293,0,0,1,.568.971,3.692,3.692,0,0,1,1.06-1,2.9,2.9,0,0,1,1.639-.467,3.68,3.68,0,0,1,.593.052,2.719,2.719,0,0,1,.593.163,1.2,1.2,0,0,1,.453.315.776.776,0,0,1,.176.53,2.184,2.184,0,0,1-.2.87,4.823,4.823,0,0,1-.4.769,2.521,2.521,0,0,0-.706-.466,2.416,2.416,0,0,0-.96-.164,2.448,2.448,0,0,0-1.513.517,1.93,1.93,0,0,0-.479.542,1.228,1.228,0,0,0-.177.63v8.376h-2.144V79.586h.176a.959.959,0,0,0,.152-.013.8.8,0,0,1,.125-.013" transform="translate(-203.458 -69.451)" fill="#989ba6"/><path d="M365.764,86.519V72.971a.708.708,0,0,0,.177-.025,1.792,1.792,0,0,0,.19-.012,2.192,2.192,0,0,1,.24-.013,2,2,0,0,1,.478.062,1.311,1.311,0,0,1,.468.228,1.193,1.193,0,0,1,.353.48,2.074,2.074,0,0,1,.139.82V89.874h-2.044l-8.576-13.093V89.874h-2.044V73.048a2.527,2.527,0,0,1,.43-.088,4.184,4.184,0,0,1,.555-.037,1.7,1.7,0,0,1,.871.189,1.861,1.861,0,0,1,.591.643Z" transform="translate(-206.831 -67.832)" fill="#989ba6"/><path d="M386.308,88.743a6.663,6.663,0,0,0,.052.946.986.986,0,0,0,.188.5.655.655,0,0,0,.379.215,3.048,3.048,0,0,0,.619.05v1.009a3.384,3.384,0,0,1-.556.126,4.365,4.365,0,0,1-.681.05,2.872,2.872,0,0,1-1.379-.314,1.373,1.373,0,0,1-.689-1.123,5.739,5.739,0,0,1-1.51,1.073,5.193,5.193,0,0,1-2.313.442,5.984,5.984,0,0,1-1.32-.152,3.2,3.2,0,0,1-1.207-.555A3.12,3.12,0,0,1,377,89.928a3.794,3.794,0,0,1-.352-1.741,3.323,3.323,0,0,1,.667-2.144,4.746,4.746,0,0,1,1.647-1.311,7.344,7.344,0,0,1,2.1-.656,15.976,15.976,0,0,1,2.048-.2h.528a4.741,4.741,0,0,1,.528.025v-.378a2.481,2.481,0,0,0-.542-1.728,2.8,2.8,0,0,0-2.082-.593,5.567,5.567,0,0,0-1.917.29,6.909,6.909,0,0,0-1.514.795h-.251a3.753,3.753,0,0,1-.34-.707,1.878,1.878,0,0,1-.14-.606.8.8,0,0,1,.405-.618,4.178,4.178,0,0,1,1.046-.516,8.2,8.2,0,0,1,1.426-.354,9.666,9.666,0,0,1,1.539-.126,7.1,7.1,0,0,1,2.147.278,3.318,3.318,0,0,1,1.4.833,3.064,3.064,0,0,1,.753,1.388,7.677,7.677,0,0,1,.216,1.917Zm-2.119-3.229h-.727a13.64,13.64,0,0,0-1.633.1,5.842,5.842,0,0,0-1.507.379,2.883,2.883,0,0,0-1.105.77,1.915,1.915,0,0,0-.426,1.3,2.121,2.121,0,0,0,.451,1.336,2.033,2.033,0,0,0,1.683.582,4.041,4.041,0,0,0,1.243-.19,4.772,4.772,0,0,0,1.042-.466,2.728,2.728,0,0,0,.715-.606,1.012,1.012,0,0,0,.264-.63Z" transform="translate(-212.238 -69.451)" fill="#989ba6"/><path d="M395.4,88.844a3.751,3.751,0,0,1-.215-1.047c-.025-.379-.038-.752-.038-1.123V74.867h.151a.971.971,0,0,0,.14-.013,1.179,1.179,0,0,1,.164-.013,2.028,2.028,0,0,1,1.186.351,1.454,1.454,0,0,1,.5,1.278v2h3.758v1.841h-3.758v6.509q0,2.068,1.639,2.069a2.043,2.043,0,0,0,.757-.139,3.276,3.276,0,0,0,.631-.328,4.1,4.1,0,0,0,.467-.367,1.85,1.85,0,0,0,.24-.252,7.059,7.059,0,0,1,.519.731,1.315,1.315,0,0,1,.213.681.779.779,0,0,1-.227.492,2.286,2.286,0,0,1-.631.491,4.124,4.124,0,0,1-1,.38,5.323,5.323,0,0,1-1.3.15,3.83,3.83,0,0,1-2.094-.5,2.748,2.748,0,0,1-1.109-1.388" transform="translate(-216.892 -68.315)" fill="#989ba6"/><path d="M412.279,90.073a3.935,3.935,0,0,0,2.22-.657,2.572,2.572,0,0,0,.63-.6,1.012,1.012,0,0,0,.228-.568v-8.7h.152a1.108,1.108,0,0,0,.138-.013,1.079,1.079,0,0,1,.163-.013,1.949,1.949,0,0,1,1.2.367,1.556,1.556,0,0,1,.492,1.323V91.535h-2.145V90.447a4.564,4.564,0,0,1-1.412,1.02,5.314,5.314,0,0,1-2.346.447,4.673,4.673,0,0,1-2.27-.453,3,3,0,0,1-1.2-1.161,3.843,3.843,0,0,1-.467-1.551c-.052-.564-.076-1.107-.076-1.627V79.553h.152a1.063,1.063,0,0,0,.138-.013,1.1,1.1,0,0,1,.165-.013,1.992,1.992,0,0,1,1.2.355,1.519,1.519,0,0,1,.492,1.314v5.943a7.02,7.02,0,0,0,.14,1.568,1.436,1.436,0,0,0,.567.884,2.226,2.226,0,0,0,.821.38,4.592,4.592,0,0,0,1.021.1" transform="translate(-220.02 -69.494)" fill="#989ba6"/><path d="M426.778,79.56a1.94,1.94,0,0,1,1.047.291,1.294,1.294,0,0,1,.568.971,3.681,3.681,0,0,1,1.06-1,2.9,2.9,0,0,1,1.639-.467,3.685,3.685,0,0,1,.593.052,2.733,2.733,0,0,1,.593.163,1.2,1.2,0,0,1,.453.315.776.776,0,0,1,.176.53,2.185,2.185,0,0,1-.2.87,4.9,4.9,0,0,1-.4.769,2.522,2.522,0,0,0-.706-.466,2.416,2.416,0,0,0-.959-.164,2.443,2.443,0,0,0-.82.138,2.416,2.416,0,0,0-.693.379,1.929,1.929,0,0,0-.479.542,1.229,1.229,0,0,0-.177.63v8.376h-2.143V79.586h.176a.959.959,0,0,0,.152-.013.794.794,0,0,1,.125-.013" transform="translate(-224.732 -69.451)" fill="#989ba6"/><path d="M442.986,90.031a4.729,4.729,0,0,0,1.274-.152,3.945,3.945,0,0,0,.933-.378,4.506,4.506,0,0,0,.67-.466,4.858,4.858,0,0,0,.453-.441,5.119,5.119,0,0,1,.493.756,1.489,1.489,0,0,1,.213.631.845.845,0,0,1-.125.421,1.633,1.633,0,0,1-.43.447,5.117,5.117,0,0,1-1.488.73,7.914,7.914,0,0,1-4.428-.047,4.715,4.715,0,0,1-1.836-1.1,5.233,5.233,0,0,1-1.249-1.981,8.538,8.538,0,0,1-.459-2.99,7.335,7.335,0,0,1,.466-2.75,5.5,5.5,0,0,1,1.225-1.9,4.766,4.766,0,0,1,1.727-1.1,5.817,5.817,0,0,1,2.006-.353,5.186,5.186,0,0,1,2.207.429,4.149,4.149,0,0,1,1.5,1.147A4.76,4.76,0,0,1,447,82.6a6.912,6.912,0,0,1,.278,1.954c0,.236,0,.476-.013.719a6.008,6.008,0,0,1-.064.695h-7.946a4.9,4.9,0,0,0,.971,2.946,3.331,3.331,0,0,0,2.762,1.115m2.144-5.677a5.418,5.418,0,0,0-.138-1.261,2.784,2.784,0,0,0-.463-1.022,2.244,2.244,0,0,0-.867-.694,3.113,3.113,0,0,0-1.32-.252,2.879,2.879,0,0,0-2.147.858,3.6,3.6,0,0,0-.942,2.371Z" transform="translate(-227.419 -69.451)" fill="#989ba6"/><g transform="translate(0)"><path d="M217.858,80.744l-2.176-2.176L213.6,80.655a2.839,2.839,0,0,0,0,4l2.175,2.175,2.087-2.087a2.837,2.837,0,0,0,0-4" transform="translate(-170.851 -69.213)" fill="#989ba6"/><path d="M189.973,80.649l-2.084-2.084-2.178,2.178a2.835,2.835,0,0,0,0,4l2.085,2.086,2.177-2.178a2.84,2.84,0,0,0,0-4" transform="translate(-163.925 -69.212)" fill="#989ba6" fill-rule="evenodd"/><path d="M239.779,77.566,229.17,66.954a2.841,2.841,0,0,0-4,0l-8.522,8.525,2.174,2.176a2.84,2.84,0,0,1,0,4l-2.087,2.087,8.434,8.436a2.838,2.838,0,0,0,4,0l10.61-10.611a2.84,2.84,0,0,0,0-4m-6.786,1.227a3.8,3.8,0,0,1-1.2,2.846c-1.228,1.192-2.507,2.332-3.784,3.473a1.185,1.185,0,0,1-.519.257l-.063.016-.068.01a1.261,1.261,0,0,1-.186.016h-.013a1.292,1.292,0,0,1-.18-.016,1.219,1.219,0,0,1-.653-.287c-1.268-1.13-2.538-2.26-3.758-3.442a3.674,3.674,0,0,1-1.218-2.841c0-.016,0-.032,0-.047a3.253,3.253,0,0,1,.212-1.149c.01-.029.02-.056.031-.085s.013-.034.02-.05a2.948,2.948,0,0,1,1.383-1.552,3.252,3.252,0,0,1,1.022-.376c.087-.017.172-.03.259-.039l.032,0c.09-.008.179-.012.267-.013l.043,0,.049,0,.126.007a3.257,3.257,0,0,1,2.382,1.227,3.262,3.262,0,0,1,5.126.016c.039.05.077.1.113.152.02.029.039.058.058.087.041.063.082.129.119.2.006.011.013.023.019.035.044.082.086.168.123.255l.014.03c.037.089.069.179.1.271l.011.035c.028.091.052.184.072.278,0,.016.005.031.008.046.018.092.033.186.043.282,0,.02,0,.039,0,.059,0,.041.008.08.01.121s0,.08,0,.119c0,.017,0,.032,0,.05Z" transform="translate(-171.813 -66.124)" fill="#989ba6"/><path d="M202.27,76.387a1.444,1.444,0,1,0,1.443,1.443,1.445,1.445,0,0,0-1.443-1.443" transform="translate(-167.884 -68.671)" fill="#989ba6"/><path d="M207.632,81.6a2.84,2.84,0,0,1,0-4l2.087-2.087-8.434-8.436a2.839,2.839,0,0,0-4,0l-8.431,8.434,2.084,2.084a2.84,2.84,0,0,1,0,4l-2.178,2.178,8.525,8.528a2.84,2.84,0,0,0,4,0l8.523-8.526Zm-8.908,4.7a.8.8,0,1,1-1.593,0V80.619l-3.315-1.894a.8.8,0,0,1,.79-1.383l3.717,2.123a.8.8,0,0,1,.4.692Zm.548-7.947a3.036,3.036,0,1,1,3.037-3.037,3.04,3.04,0,0,1-3.037,3.037m5.477.376-3.315,1.894V86.3a.8.8,0,1,1-1.593,0v-6.14a.8.8,0,0,1,.4-.692l3.716-2.123a.8.8,0,1,1,.79,1.383" transform="translate(-164.887 -66.153)" fill="#989ba6"/><path d="M173.905,86.928l3.751-3.752a.48.48,0,0,0-.679-.679l-3.072,3.072V83.108l2.076-2.076a.48.48,0,1,0-.68-.679l-1.4,1.4V79.178a.48.48,0,0,0-.961,0v2.588l-1.414-1.414a.48.48,0,1,0-.679.679l2.093,2.093v2.462L169.856,82.5a.48.48,0,1,0-.679.679l3.768,3.769v2.383c.159.014.318.027.48.027s.322-.014.48-.028Z" transform="translate(-159.989 -69.245)" fill="#989ba6"/><path d="M178.786,77.653l2.177-2.178-8.525-8.527a2.839,2.839,0,0,0-4,0L157.826,77.559a2.835,2.835,0,0,0,0,4l10.609,10.612a2.843,2.843,0,0,0,4,0l8.432-8.434-2.084-2.086a2.834,2.834,0,0,1,0-4m-2.715,3.1c0,.02,0,.041,0,.061a5.472,5.472,0,0,1-.2,1.483c-.01.037-.02.073-.031.109l-.018.065a3.755,3.755,0,0,1-1.043,1.692,5.583,5.583,0,0,1-8.588.114,3.765,3.765,0,0,1-.715-.861c-.038-.064-.074-.129-.11-.2-.02-.038-.038-.074-.056-.113-.041-.082-.079-.166-.115-.252l-.019-.045c-.044-.106-.083-.216-.119-.328l-.014-.04c-.036-.114-.068-.231-.1-.35l-.011-.045c-.027-.118-.05-.238-.069-.36,0-.02-.006-.039-.008-.059-.017-.12-.032-.24-.042-.363,0-.026,0-.052,0-.077,0-.052-.007-.1-.008-.157s0-.1,0-.154c0-.021,0-.042,0-.064l0-.023,0-.034c0-.059-.018-.114-.018-.174a5.572,5.572,0,0,1,.269-1.634c.028-.1.057-.2.091-.294a5.385,5.385,0,0,1,.212-.507,5.28,5.28,0,0,1,.3-.548c.057-.092.113-.185.176-.274.047-.068.084-.144.135-.21,1.189-1.539,2.428-3.012,3.664-4.484a1.071,1.071,0,0,1,.5-.331c.02-.007.04-.015.06-.02l.068-.014a.946.946,0,0,1,.179-.019h.013a.883.883,0,0,1,.173.02,1.076,1.076,0,0,1,.634.371c1.227,1.46,2.456,2.919,3.636,4.445.07.09.123.192.188.287.031.044.058.088.087.133a5.587,5.587,0,0,1,.4.736c.04.088.08.175.115.265a5.448,5.448,0,0,1,.2.628c.041.157.085.312.114.474.019.118.024.244.036.366a5.459,5.459,0,0,1,.062.61c0,.058-.015.111-.017.168Z" transform="translate(-157 -66.122)" fill="#989ba6"/><path d="M42.279,8.672s1.6.448,1.761.56,3.345,2.305,3.345,2.433-.032.864,0,1.217.3,1.265,0,1.777a6.142,6.142,0,0,1-1.3,1.7c-.384.208-1.457.736-1.537.768a2.381,2.381,0,0,1-1.169.432,2.431,2.431,0,0,1-2.577-1.825c-.5-1.521-1.393-2.305-.944-3.153a11.817,11.817,0,0,0,.7-1.873,3.657,3.657,0,0,1,.7-1.249C41.543,9.216,42.279,8.672,42.279,8.672Z" transform="translate(0.972 0.212)" fill="#989ba6"/><path d="M2858.557,3876.891a6.209,6.209,0,0,0,1.7.353,5.922,5.922,0,0,1,2.017.559,17.436,17.436,0,0,1,.785,1.633c.016.208.3.978.336,1.2s.465,1.2,0,1.633a16.441,16.441,0,0,0-1.216,1.505c-.24.271-.513.671-.816.7a8.623,8.623,0,0,0-1.569.929h-.447a1.237,1.237,0,0,1-.865-.1c-.544-.224-1.761-.113-2.145-1.024s-.578-.705-.642-2.018a19.033,19.033,0,0,1-.112-3.152,3.2,3.2,0,0,1,.544-1.633,2.05,2.05,0,0,1,.72-.449,14.029,14.029,0,0,1,1.537-.145Z" transform="translate(-2835.271 -3867.783)" fill="#989ba6"/></g><path d="M178.786,77.653l2.177-2.178-8.525-8.527a2.839,2.839,0,0,0-4,0L157.826,77.559a2.835,2.835,0,0,0,0,4l10.609,10.612a2.843,2.843,0,0,0,4,0l8.432-8.434-2.084-2.086a2.834,2.834,0,0,1,0-4m-2.715,3.1c0,.02,0,.041,0,.061a5.472,5.472,0,0,1-.2,1.483c-.01.037-.02.073-.031.109l-.018.065a3.755,3.755,0,0,1-1.043,1.692,5.583,5.583,0,0,1-8.588.114,3.765,3.765,0,0,1-.715-.861c-.038-.064-.074-.129-.11-.2-.02-.038-.038-.074-.056-.113-.041-.082-.079-.166-.115-.252l-.019-.045c-.044-.106-.083-.216-.119-.328l-.014-.04c-.036-.114-.068-.231-.1-.35l-.011-.045c-.027-.118-.05-.238-.069-.36,0-.02-.006-.039-.008-.059-.017-.12-.032-.24-.042-.363,0-.026,0-.052,0-.077,0-.052-.007-.1-.008-.157s0-.1,0-.154c0-.021,0-.042,0-.064l0-.023,0-.034c0-.059-.018-.114-.018-.174a5.572,5.572,0,0,1,.269-1.634c.028-.1.057-.2.091-.294a5.385,5.385,0,0,1,.212-.507,5.28,5.28,0,0,1,.3-.548c.057-.092.113-.185.176-.274.047-.068.084-.144.135-.21,1.189-1.539,2.428-3.012,3.664-4.484a1.071,1.071,0,0,1,.5-.331c.02-.007.04-.015.06-.02l.068-.014a.946.946,0,0,1,.179-.019h.013a.883.883,0,0,1,.173.02,1.076,1.076,0,0,1,.634.371c1.227,1.46,2.456,2.919,3.636,4.445.07.09.123.192.188.287.031.044.058.088.087.133a5.587,5.587,0,0,1,.4.736c.04.088.08.175.115.265a5.448,5.448,0,0,1,.2.628c.041.157.085.312.114.474.019.118.024.244.036.366a5.459,5.459,0,0,1,.062.61c0,.058-.015.111-.017.168Z" transform="translate(-157 -66.122)" fill="#989ba6"/></svg>