<svg xmlns="http://www.w3.org/2000/svg" xmlns:xlink="http://www.w3.org/1999/xlink" width="152.996" height="53.063" viewBox="0 0 152.996 53.063"><defs><clipPath id="a"><rect width="152.996" height="53.063" fill="#fff"/></clipPath></defs><g clip-path="url(#a)"><path d="M185.339,11.179h-1.862c.826-2.017,1.646-4.037,2.482-6.048.881,2,1.663,4.037,2.506,6.049h-3.126ZM187.156,0c-.265,0-.53.007-.793.015-.205.009-.409.011-.613.011-.163,0-.323,0-.486,0l-.486,0c-.231,0-.46,0-.691.014q-4.068,9.552-8.133,19.1l.614,0,1.007,0h.962c.572,0,1.143,0,1.715-.008.564-1.419,1.151-2.83,1.724-4.243h4.562c1.141,0,2.283,0,3.422,0q.876,2.122,1.737,4.25,1.035,0,2.069,0h2.327q-4.057-9.556-8.13-19.1c-.268-.024-.538-.032-.806-.032" transform="translate(-134.345 0.001)" fill="#fff"/><path d="M413.94,11.2c-.712,0-1.427,0-2.139,0,.837-2.026,1.657-4.057,2.5-6.08q1.243,3.04,2.491,6.083ZM415.857.027c-.527,0-1.055.01-1.582.028-.086,0-.169.006-.257.006-.181,0-.361-.007-.544-.012s-.363-.013-.546-.013-.349.006-.524.022c-1.342,3.19-2.71,6.37-4.06,9.555-.4.9-.746,1.829-1.194,2.71-.328.7-.554,1.445-.876,2.15-.662,1.56-1.333,3.118-1.991,4.683h4.283q.868-2.125,1.735-4.254c.693,0,1.389,0,2.081,0H415.6q1.351,0,2.7,0c.562,1.419,1.16,2.821,1.716,4.241.572.007,1.143.009,1.714.009l.958,0,.95,0,.787,0c-.9-2.131-1.845-4.245-2.688-6.4-.221-.589-.543-1.132-.77-1.719q-2.339-5.5-4.685-11.01c-.14,0-.281,0-.423,0" transform="translate(-308.682 -0.021)" fill="#fff"/><path d="M577.256,15.549q0-5.7,0-11.4l1.4,0c.266,0,.535,0,.8,0h1.222a5.567,5.567,0,0,1,4.267,1.973A6.266,6.266,0,0,1,586,11.453a5.159,5.159,0,0,1-2.585,3.4,6.284,6.284,0,0,1-2.93.7h-3.228Zm2.857-15.3H580.1c-.277,0-.554,0-.833.009s-.586.01-.877.011c-.067.01-.134.018-.2.025a.267.267,0,0,1-.046.006h-.006l-.062.008a11.085,11.085,0,0,1-1.125.047h-.017c-.078,0-.156,0-.236,0h-.244c-.081,0-.163,0-.244,0h-.386c-.061,0-.124,0-.185,0-.856,0-1.71,0-2.563,0q0,4.746,0,9.491t0,9.488h7.687a10.691,10.691,0,0,0,5.36-1.481,9.063,9.063,0,0,0,3.536-3.878,9.82,9.82,0,0,0,.894-3.428V9.125a9.3,9.3,0,0,0-1.912-5.091,9.486,9.486,0,0,0-4.755-3.2c-.612-.2-1.261-.263-1.868-.474a.679.679,0,0,0-.072-.011,13.105,13.105,0,0,0-1.823-.105h-.011" transform="translate(-437.558 -0.19)" fill="#fff"/><path d="M104.248.671h-4.2q-.005,3.752,0,7.5H92.374q0-3.754,0-7.5H88.195q0,3.752,0,7.5h-4.13c-.009,1.291,0,2.583,0,3.872h4.133c0,2.533,0,5.065,0,7.6.578,0,1.154,0,1.732,0h2.451q0-3.8,0-7.6,1.541-.006,3.084,0h4.587v7.6h4.2q0-9.49,0-18.977" transform="translate(-64.183 -0.512)" fill="#fff"/><path d="M272.922,9.88c-.36,0-.722,0-1.083,0,0-1.8,0-3.608,0-5.415h3.252q.572,0,1.144,0a3.421,3.421,0,0,1,2.344.862,2.794,2.794,0,0,1,.612,2.451,2.422,2.422,0,0,1-1.385,1.742,4.716,4.716,0,0,1-2.117.363c-.2,0-.4,0-.6-.005l-2.167,0M275.838.66l-.488,0h-7.688q-.011,9.49,0,18.977h2.451c.576,0,1.154,0,1.729,0-.007-2.014,0-4.029,0-6.047.425-.007.848-.008,1.273-.008l.673,0h.63c.232,0,.462,0,.693,0q2.028,3.03,4.058,6.058h4.916q-1.744-2.552-3.493-5.1a18.085,18.085,0,0,0-1.123-1.665,6.478,6.478,0,0,0,2.559-1.691,5.858,5.858,0,0,0,1.452-3.52,6.565,6.565,0,0,0-1.118-4.51A6.206,6.206,0,0,0,278.593.9,12.242,12.242,0,0,0,275.838.66" transform="translate(-204.365 -0.504)" fill="#fff"/><path d="M351.876.671q-.9,0-1.8,0c-.585,1.6-1.189,3.2-1.779,4.8-1.049,2.812-2.066,5.638-3.174,8.427-.2-.6-.427-1.189-.681-1.765Q342.318,6.4,340.19.671h-4.632q3.822,9.569,7.675,19.123c.343,0,.683,0,1.024,0h.708l.728,0q.628,0,1.254-.008c2.54-6.376,5.118-12.736,7.661-19.113Z" transform="translate(-256.208 -0.512)" fill="#fff"/><path d="M501.071,4.467H502c.325,0,.654,0,.979,0l1.615,0a3.392,3.392,0,0,1,2.261.85,2.564,2.564,0,0,1,.68,1.971,2.434,2.434,0,0,1-.874,1.883,3.683,3.683,0,0,1-2.361.709h-1.768l-.82,0q-.782,0-1.567,0c.005-1.806,0-3.608,0-5.414.31,0,.617,0,.925,0m3.464-3.8c-.047,0-.1,0-.144,0h-8.447q-.007,9.485,0,18.977h4.2c.01-2.019-.02-4.038.021-6.058l.588,0,.587,0h.7c.451,0,.9,0,1.352.005q2.023,3.029,4.055,6.052l.717,0,1.159,0h1.125c.64,0,1.278,0,1.917,0q-2.322-3.379-4.63-6.762a6.143,6.143,0,0,0,3.131-2.438,6.949,6.949,0,0,0,.815-4.767,5.5,5.5,0,0,0-2.2-3.658A8.374,8.374,0,0,0,504.534.663" transform="translate(-378.665 -0.506)" fill="#fff"/><path d="M262.168,90.73a11.174,11.174,0,0,0-1.429.092,6.677,6.677,0,0,0-3.8,1.762,5.3,5.3,0,0,0-1.561,3.815,5.463,5.463,0,0,0,.6,2.847,4.9,4.9,0,0,0,2.21,1.948,35.575,35.575,0,0,0,5.114,1.641,5.372,5.372,0,0,1,1.741.844,1.567,1.567,0,0,1-.183,2.418,3.627,3.627,0,0,1-2.052.528,8.678,8.678,0,0,1-.926-.056A9.281,9.281,0,0,1,257.1,104.3q-1.251,1.5-2.5,2.995a12.178,12.178,0,0,0,7.669,3.05c.149.006.3.008.448.008a8.276,8.276,0,0,0,4.658-1.249,5.221,5.221,0,0,0,2.211-3.311,6.257,6.257,0,0,0-.281-3.614,5.381,5.381,0,0,0-1.578-1.929,8.478,8.478,0,0,0-2.195-1.034c-1.223-.455-2.511-.7-3.754-1.095a5.6,5.6,0,0,1-1.643-.737,1.539,1.539,0,0,1-.015-2.4,2.958,2.958,0,0,1,1.857-.528c.229,0,.457.014.678.036a9.739,9.739,0,0,1,4.3,1.848q1.108-1.588,2.2-3.187a11.08,11.08,0,0,0-6.984-2.428" transform="translate(-194.392 -69.275)" fill="#fff"/><path d="M519.459,90.734a7.377,7.377,0,0,0-4.655,1.49,5.316,5.316,0,0,0-1.967,3.88,5.749,5.749,0,0,0,.612,3.162,4.764,4.764,0,0,0,1.973,1.816,29.417,29.417,0,0,0,5.23,1.723,5.553,5.553,0,0,1,1.856.88,1.567,1.567,0,0,1-.133,2.376,3.523,3.523,0,0,1-2.1.567c-.247,0-.493-.015-.734-.037a9.048,9.048,0,0,1-4.975-2.287c-.848.988-1.677,1.993-2.508,3a12.166,12.166,0,0,0,7.5,3.038c.206.01.416.016.625.016a8.125,8.125,0,0,0,4.844-1.386,5.24,5.24,0,0,0,2.085-3.563,5.017,5.017,0,0,0-3.367-5.886c-1.678-.752-3.519-1-5.232-1.646a2.531,2.531,0,0,1-1.311-.921,1.574,1.574,0,0,1,.326-1.917,2.93,2.93,0,0,1,1.935-.572c.155,0,.31.008.463.017a9.613,9.613,0,0,1,4.495,1.863c.733-1.06,1.469-2.118,2.195-3.182a11.015,11.015,0,0,0-6.872-2.422c-.092,0-.186,0-.28,0" transform="translate(-390.969 -69.278)" fill="#fff"/><path d="M586.211,90.742a7.264,7.264,0,0,0-4.736,1.585,5.328,5.328,0,0,0-1.86,3.981,5.422,5.422,0,0,0,.782,3.228,5.363,5.363,0,0,0,2.369,1.825,50.628,50.628,0,0,0,4.924,1.533,4.585,4.585,0,0,1,1.692.884,1.578,1.578,0,0,1,.307,1.554,1.844,1.844,0,0,1-1.292,1.116,4.72,4.72,0,0,1-1.38.19,8.079,8.079,0,0,1-1.482-.155,9.6,9.6,0,0,1-4.2-2.176c-.828,1-1.675,1.993-2.5,3a12.135,12.135,0,0,0,7.179,3.018c.314.024.63.037.948.037a8.287,8.287,0,0,0,4.637-1.242,5.224,5.224,0,0,0,2.247-3.454,5.985,5.985,0,0,0-.435-3.735A5.281,5.281,0,0,0,590.9,99.7c-1.724-.863-3.658-1.116-5.456-1.766a3.071,3.071,0,0,1-1.361-.827,1.558,1.558,0,0,1,.222-2.057,2.914,2.914,0,0,1,1.944-.58c.148,0,.295.005.439.015a9.728,9.728,0,0,1,4.527,1.863c.721-1.067,1.459-2.12,2.186-3.178a11.024,11.024,0,0,0-6.9-2.425h-.086c-.066,0-.13,0-.2,0" transform="translate(-441.961 -69.284)" fill="#fff"/><path d="M14.5,92.333q2.795,0,5.589,0c.014,2.121,0,4.243.006,6.364q-3.309.005-6.618,0H3.374c-.148,0-.3,0-.443,0-.213,0-.428,0-.642,0l-.644,0c-.393,0-.787,0-1.18-.02.017-2.114.008-4.229,0-6.344q3.062-.005,6.126,0h7.9ZM0,91.855C0,94.293,0,96.733,0,99.174H20.567q0-3.658,0-7.318H19.249l-5.864,0-5.463,0q-3.957,0-7.918,0" transform="translate(0 -70.134)" fill="#fff"/><path d="M105.653,107.249c0-1.394-.006-2.79,0-4.183q.741,0,1.485,0H109c.577,0,1.155,0,1.732,0a3.585,3.585,0,0,1,2.294.714,2,2,0,0,1,.479,1.924,1.741,1.741,0,0,1-.958,1.155,5.386,5.386,0,0,1-2.382.383c-.752,0-1.506,0-2.257,0s-1.506,0-2.258,0m0-7.693c-.005-1.332-.008-2.666,0-4,.449,0,.9,0,1.344,0h1.779c.428,0,.856,0,1.286,0a3.033,3.033,0,0,1,1.9.643,1.912,1.912,0,0,1,.408,2.093,1.949,1.949,0,0,1-1.359,1.08,5.377,5.377,0,0,1-1.55.175l-.381,0-.392,0-.24,0h-.113c-.232,0-.462-.011-.691-.023s-.463-.027-.695-.027a4.831,4.831,0,0,0-.489.023,7.85,7.85,0,0,1-.808.03m4.547-7.7-.323,0h-8.336q0,9.536,0,19.071l4.421,0,5.054,0a9.845,9.845,0,0,0,4.071-.872,4.572,4.572,0,0,0,2.54-3.111,4.773,4.773,0,0,0-3.386-5.979A4.7,4.7,0,0,0,116.47,98.4a4.684,4.684,0,0,0-3.1-6.076,9.374,9.374,0,0,0-3.172-.467" transform="translate(-77.531 -70.134)" fill="#fff"/><path d="M181.729,91.859c-.518,0-1.035,0-1.553,0h-.669l-.866,0-1.137,0c-.008,3,.02,6-.02,9.006.049,1.171-.023,2.35.126,3.515a7.856,7.856,0,0,0,2.039,4.644,7.515,7.515,0,0,0,4.512,2.11,13.78,13.78,0,0,0,1.659.1,10.743,10.743,0,0,0,3.409-.525,6.775,6.775,0,0,0,3.55-2.706,9.812,9.812,0,0,0,1.375-5.345c0-3.6,0-7.2,0-10.806l-1.41,0-2.817,0c0,3.159.013,6.32-.011,9.479a12.137,12.137,0,0,1-.169,3.091,3.747,3.747,0,0,1-1.454,2.239,4.3,4.3,0,0,1-2.432.679,6.062,6.062,0,0,1-.714-.044,3.6,3.6,0,0,1-2.458-1.316,5.3,5.3,0,0,1-.955-3.228c0-3.633,0-7.267,0-10.9" transform="translate(-135.514 -70.137)" fill="#fff"/><path d="M328.916,91.867q-.006,9.538,0,19.069.665,0,1.332,0,.571,0,1.144,0c.578,0,1.156,0,1.735-.009,0-3.448-.03-6.9.018-10.343-.052-2.907-.011-5.814-.022-8.719q-.722,0-1.441,0h-2.765Z" transform="translate(-251.136 -70.143)" fill="#fff"/><path d="M373.812,91.859c-.005,3.9,0,7.8,0,11.7Q369.386,97.793,365,92l-.306-.136-2.6,0-1.077,0c-.009,2.843.02,5.686-.017,8.53.036,3.514.009,7.026.017,10.54q.783,0,1.566,0h2.592q0-6.031,0-12.06c3.077,4.013,6.133,8.042,9.2,12.06h2.355c.413,0,.829,0,1.241,0q0-9.535,0-19.069h-1.485c-.324,0-.648,0-.973,0q-.848,0-1.7,0" transform="translate(-275.628 -70.137)" fill="#fff"/><path d="M460.618,91.867H446.225q0,9.536,0,19.068,2.751,0,5.5,0h2.593c.877,0,1.752,0,2.63,0l3.811,0c0-1.252,0-2.5,0-3.75q-2.112-.006-4.22-.006-1.282,0-2.565,0h-3.548v-3.968q1.376,0,2.749,0H459.4c0-1.276,0-2.55,0-3.825h-1.317c-.268,0-.535,0-.8,0-.436,0-.87,0-1.3.014a5.5,5.5,0,0,1-.928.064l-.28,0h-4.348V95.619h10.19c0-1.25,0-2.5,0-3.752" transform="translate(-340.704 -70.143)" fill="#fff"/><path d="M6.085,95.616a1.236,1.236,0,0,1,.684-.336,4.412,4.412,0,0,1,.564-.03c.359,0,.721.026,1.079.03.046.275-.013.579.194.8.174.165-.048.322-.157.44-.01.433-.01.871,0,1.306l.238.3c-.011.15-.152.24-.233.355-.011.163-.023.326-.032.488-.1,0-.193,0-.29,0-.123,0-.245,0-.368,0H7.371c-.452,0-.9.005-1.354.038-.363-.032-.725-.039-1.088-.039H4.593c-.112,0-.225,0-.339,0-.2,0-.4,0-.6-.009-.008-.172-.019-.345-.029-.515l-.223-.228c-.031-.2.219-.287.228-.475.03-.41,0-.821,0-1.23-.083-.111-.258-.189-.24-.347l.236-.26c.01-.216.017-.433.026-.649.109.009.219.011.329.011.152,0,.3-.005.455-.011s.3-.011.455-.011a3.725,3.725,0,0,1,.564.037,1.266,1.266,0,0,1,.624.329m5.72-.014a1.651,1.651,0,0,1,1.157-.36c.167,0,.337.011.506.022s.336.019.5.019c.064,0,.125,0,.186,0a1.188,1.188,0,0,0,.169.8c.188.16-.058.308-.149.441,0,.4-.029.813,0,1.217.026.175.209.284.221.463l-.214.236c-.011.171-.02.343-.031.515-.259.018-.52.022-.779.022l-.288,0-.3,0a9.383,9.383,0,0,0-.99.042c-.418-.038-.837-.04-1.255-.04h-.337c-.282,0-.563,0-.844-.014-.011-.172-.023-.345-.037-.516-.09-.1-.227-.179-.232-.327l.235-.243c.025-.454.021-.906.008-1.357-.081-.114-.272-.212-.218-.375l.215-.236c.009-.215.018-.43.024-.643q.148.009.3.008c.154,0,.309-.005.465-.011s.311-.011.467-.011a4.349,4.349,0,0,1,.568.033,1.377,1.377,0,0,1,.649.319m5.712,0a1.714,1.714,0,0,1,1.184-.36c.168,0,.339.01.508.021s.337.019.5.019l.145,0c.007.211.014.422.027.635.073.1.214.172.227.31l-.234.3c-.017.436-.015.87-.005,1.308l.242.293c0,.147-.15.223-.227.328-.013.171-.023.343-.032.514-.26.012-.52.017-.779.017s-.536,0-.8,0h-.017c-.135,0-.268.01-.4.021s-.265.018-.4.018A1.828,1.828,0,0,1,17.23,99c-.236-.023-.473-.03-.708-.03-.135,0-.27,0-.406,0s-.271,0-.4,0c-.163,0-.324,0-.485-.012a.15.15,0,0,1-.035,0c-.136,0-.1-.188-.128-.283,0-.218-.161-.379-.246-.565l.244-.3c.01-.437.013-.872-.006-1.306-.1-.134-.358-.275-.149-.439a1.117,1.117,0,0,0,.167-.8c.392,0,.784-.038,1.176-.038a4.511,4.511,0,0,1,.6.038,1.293,1.293,0,0,1,.664.318m4.075-1.731q-2.795,0-5.589,0H8.1q-3.064,0-6.127.005c0,2.115.012,4.229,0,6.341.393.018.785.022,1.178.022l.646,0c.214,0,.427,0,.641,0,.148,0,.295,0,.442,0h10.1l6.617,0c0-2.123.007-4.245-.005-6.366" transform="translate(-1.506 -71.67)" fill="#fff"/><path d="M11.816,103.325c-.312,0-.625-.015-.935-.036.262-.018.526-.023.789-.023.3,0,.61.007.913.022a7.577,7.577,0,0,1-.767.037m-1.186.069c-.172,0-.286-.3-.071-.382a.173.173,0,0,1,.085-.025c.175,0,.3.313.074.381a.164.164,0,0,1-.088.027m.445-.455.333,0c.116,0,.228,0,.343,0s.249,0,.373,0a.141.141,0,0,1,.028,0c.15,0,.259.13.38.2-.231.011-.46.013-.688.013h-.867l-.122-.214.22,0m-2.354.207.271-.214c.214.005.425.005.638.005h.3c.164,0,.329,0,.494,0l-.136.2c-.2.011-.4.014-.6.014l-.467,0c-.158,0-.314,0-.47,0H8.721m1.332-.327c-.329,0-.658,0-.986,0,0-.936-.007-1.872,0-2.808-.032-.226.261-.153.393-.183.392.01.9.006,1.122.393.061.864.006,1.734.026,2.6h-.555m-1.392.224c.012-1.073-.027-2.149.02-3.22l.262.063c.009.965,0,1.931,0,2.895l-.287.262m2.913-3.2c.057,0,.119-.006.183-.011s.128-.009.193-.009a.468.468,0,0,1,.332.1c.03.963,0,1.929.012,2.894-.22,0-.44.005-.66.005h-.447c-.152,0-.306,0-.457,0,0-.8-.017-1.6.005-2.4,0-.417.466-.574.812-.587h.026m1.335,3.5-.188-.03-.03-.068c.026-1.121-.02-2.245.024-3.362l.188-.08c.008.233.009.468.011.7l.282.175-.284.172c0,.529,0,1.061,0,1.593l.285.168-.284.195c0,.18,0,.358,0,.537m-4.556-.021c0-.171,0-.343,0-.511l-.287-.211.287-.153c.005-.53,0-1.06,0-1.592l-.3-.172.293-.186c0-.236,0-.468.015-.7l.168.119c.03,1.047-.01,2.1.017,3.145-.03.15.122.212.248.212h.011c.113.005.227.006.34.006l.324,0c.11,0,.221,0,.332,0,.186,0,.371,0,.558.022-.27.027-.539.032-.811.032-.15,0-.3,0-.454,0s-.31,0-.463,0l-.281,0m4.215-.272c-.236-.177-.137-.493-.157-.745.018-.839-.031-1.679.029-2.519.2.1.125.343.142.522-.012.913.011,1.828-.014,2.742m-.645-3.335a4.769,4.769,0,0,0-.564.03,1.244,1.244,0,0,0-.684.338,1.259,1.259,0,0,0-.624-.329,4.14,4.14,0,0,0-.564-.035c-.151,0-.3,0-.456.009s-.3.011-.454.011c-.109,0-.22,0-.329-.011-.008.216-.016.432-.027.648l-.236.26c-.017.158.16.236.242.349,0,.407.028.817,0,1.228-.009.188-.258.277-.228.474l.221.23c.012.171.02.344.031.516.2.006.4.008.6.008.114,0,.225,0,.339,0h.336c.364,0,.725.005,1.088.038.452-.032.9-.038,1.354-.038h.389c.123,0,.245,0,.367,0,.1,0,.194,0,.29,0,.01-.162.02-.323.031-.488.081-.115.223-.206.234-.355l-.238-.3c-.005-.436-.006-.873,0-1.308.109-.116.331-.273.158-.438-.208-.222-.148-.526-.195-.8-.358-.006-.719-.032-1.078-.032" transform="translate(-6.095 -76.131)" fill="#fff"/><path d="M33.285,103.13h-.438l.25-.222c.1.008.191.01.286.01s.162,0,.243,0l.246,0a2.479,2.479,0,0,1,.674.074c.128.027.285-.03.375.107l.114-.183c.122.006.247.008.368.008l.252,0c.087,0,.173,0,.26,0,.143,0,.287,0,.43.01l.293.193c-.212.011-.427.013-.641.013-.292,0-.585-.005-.876-.007-.175.007-.227.248-.4.248l-.02,0c-.154-.023-.164-.244-.323-.248-.366.007-.73.008-1.1.008m2.878.122a6.284,6.284,0,0,0,.643-.028c.038-1.13.006-2.261.018-3.389l.215-.006c0,.218-.006.435-.02.651l.291.136-.285.219q.031.79,0,1.579l.263.157-.265.209c.009.172.015.34.019.512h-.19c-.168,0-.334,0-.5.005s-.332,0-.5,0c-.27,0-.539-.007-.807-.033.185-.017.37-.021.556-.021.094,0,.188,0,.284,0h.278m-3.373-.237q-.015-1.593,0-3.188l.28,0c0,.942.006,1.882,0,2.823.016.175-.187.246-.277.362m.4-.216c0-.988-.009-1.977.008-2.966.17-.006.36-.023.552-.023a1.037,1.037,0,0,1,.945.383c.091.86.013,1.738.04,2.606H33.188m-.738.5c0-.172.008-.345.017-.516l-.3-.2.3-.15c-.017-.532-.021-1.064,0-1.6l-.3-.175.3-.194c-.011-.219-.017-.437-.019-.655l.222.045c.011,1.125-.036,2.251.025,3.375.18.017.36.021.541.021.1,0,.2,0,.3,0l.3,0a5.185,5.185,0,0,1,.633.031c-.285.018-.566.022-.851.022l-.483,0-.487,0h-.2m2.4-.5c.005-.807-.01-1.617.005-2.422a.53.53,0,0,1,.426-.486,2.483,2.483,0,0,1,.655-.089,2.254,2.254,0,0,1,.426.041c.077.975.006,1.969.034,2.954-.3,0-.591,0-.885,0h-.661m1.838.236a.4.4,0,0,1-.177-.371c.015-.966-.027-1.933.026-2.9a.288.288,0,0,1,.167.322c-.009.983.017,1.964-.016,2.947m-.738-3.352a1.643,1.643,0,0,0-1.156.361,1.371,1.371,0,0,0-.648-.318,4.018,4.018,0,0,0-.568-.035c-.156,0-.312.006-.468.011s-.31.011-.465.011c-.1,0-.2,0-.3-.008-.006.213-.014.429-.024.643l-.215.236c-.054.163.138.26.22.374.011.454.017.9-.008,1.358l-.236.243c0,.148.144.229.232.327.016.173.027.345.038.516.282.012.562.014.843.014h.337c.421,0,.839,0,1.258.041a9.339,9.339,0,0,1,.989-.043l.294,0c.1,0,.192,0,.288,0,.26,0,.52,0,.781-.022.01-.172.02-.344.031-.514l.212-.236c-.013-.177-.2-.288-.222-.462-.03-.406-.006-.813,0-1.217.09-.133.337-.281.15-.441a1.175,1.175,0,0,1-.168-.807c-.064,0-.125.006-.187.006-.163,0-.333-.011-.5-.019s-.34-.022-.508-.022" transform="translate(-24.496 -76.111)" fill="#fff"/><path d="M58.972,103.369c-.135-.029-.188-.172-.273-.262.085-.045.184-.152.279-.152a.14.14,0,0,1,.111.059c.157.12.018.3-.117.355m-1.888-.273.208-.2.4,0c.071,0,.14,0,.211,0h.212c.212,0,.424,0,.637.01l-.157.171c-.18.012-.36.015-.54.015l-.292,0-.3,0c-.126,0-.253,0-.38.006m2.187,0-.074-.2c.464.005.93,0,1.4.005l.214.194c-.253,0-.5,0-.756,0h-.781m.99.129c.245,0,.49,0,.735-.025.03-1.126,0-2.253.015-3.38l.214-.009c0,.213,0,.425,0,.639.075.073.268.1.218.238l-.22.135c0,.523,0,1.046,0,1.568l.276.216-.28.151c0,.175,0,.349,0,.525-.066,0-.131,0-.2,0-.174,0-.35.007-.526.013s-.35.013-.522.013a4.115,4.115,0,0,1-.769-.063c.219-.015.438-.018.655-.018h.206c.065,0,.13,0,.2,0m-3.594.057c0-.174,0-.348,0-.521l-.28-.159.275-.207c.008-.523,0-1.046,0-1.568l-.265-.182.262-.2c0-.214,0-.426,0-.639l.212.013c.029,1.121-.046,2.252.037,3.371a4.813,4.813,0,0,0,.63.033l.294,0,.293,0a5.236,5.236,0,0,1,.59.028,5.221,5.221,0,0,1-.806.055c-.186,0-.372-.006-.559-.011s-.376-.011-.564-.011h-.122m.328-.286c0-1.059-.005-2.118.006-3.177l.278-.011c0,.981,0,1.961,0,2.942l-.288.246m2-2.527c.084-.187.126-.421.326-.522a1.677,1.677,0,0,1,.77-.161,4.367,4.367,0,0,1,.494.034c.049.986.007,1.975.019,2.96q-.873.005-1.75.005c-.486,0-.971,0-1.457-.007.009-.988-.005-1.978.006-2.967.162-.008.327-.022.492-.022a1.746,1.746,0,0,1,.761.144c.219.091.257.341.338.536m1.878,2.55a.455.455,0,0,1-.149-.372c.009-.959-.017-1.92.015-2.876.2.044.145.252.154.4-.014.948.022,1.9-.021,2.844m-.693-3.354a1.722,1.722,0,0,0-1.184.36,1.326,1.326,0,0,0-.664-.319,4.7,4.7,0,0,0-.6-.036c-.392,0-.785.034-1.177.036a1.123,1.123,0,0,1-.165.8c-.211.163.046.3.147.439.018.434.016.869.007,1.3l-.246.3c.085.19.249.347.248.568.025.1-.009.282.128.282a.115.115,0,0,0,.034,0c.162.009.323.011.486.011l.4,0c.135,0,.27,0,.4,0,.236,0,.472.005.708.028a2.056,2.056,0,0,0,.224.011c.133,0,.266-.01.4-.019s.268-.019.4-.019h.017c.268,0,.537,0,.8,0s.518,0,.778-.016c.011-.172.021-.343.035-.513.075-.108.227-.183.227-.331l-.241-.292c-.012-.436-.012-.874,0-1.309l.234-.3c-.011-.137-.153-.208-.227-.309-.013-.212-.018-.425-.027-.637-.049,0-.1,0-.145,0-.162,0-.331-.009-.5-.018s-.34-.021-.509-.021" transform="translate(-42.981 -76.093)" fill="#fff"/><path d="M14.128,103.679c.3.246-.034.619-.057.923-.1-.254-.18-.515-.256-.777l.193-.135c-.188,0-.379,0-.567.007.235.494.322,1.04.542,1.539.173-.512.265-1.048.489-1.543Z" transform="translate(-10.263 -79.162)" fill="#fff"/><path d="M45.692,103.691l.153.216a10.05,10.05,0,0,1,0,1.058l-.161.184.4,0c.076,0,.153,0,.23,0L46.156,105c-.043-.394-.007-.793-.016-1.186l.18-.114c-.21-.006-.418-.008-.628-.014" transform="translate(-34.88 -79.171)" fill="#fff"/><path d="M65.848,103.3a1.507,1.507,0,0,0-.127.574,4.383,4.383,0,0,1,.2.443l-.254.011.009-.319-.058.008a3.362,3.362,0,0,1-.291.83h.384a.293.293,0,0,1-.107-.426h.017c.024,0,.054,0,.086,0s.066-.005.1-.005c.1,0,.181.024.175.15l-.105.284h.556a12.447,12.447,0,0,1-.586-1.549" transform="translate(-49.882 -78.876)" fill="#fff"/><path d="M70.841,103.437a.6.6,0,0,0-.172.021.476.476,0,0,0-.186.448c.008.278.3.4.471.569a.223.223,0,0,1-.108.388.177.177,0,0,1-.068-.014c-.175-.11-.195-.332-.277-.5-.017.189-.02.38-.029.57a.194.194,0,0,1,.031,0,1.628,1.628,0,0,1,.173.014,1.3,1.3,0,0,0,.175.016.35.35,0,0,0,.282-.115.532.532,0,0,0-.085-.741c-.17-.144-.53-.31-.3-.568a.275.275,0,0,1,.064-.008c.209,0,.258.27.361.421.014-.159.019-.319.031-.476-.122,0-.245-.024-.367-.024" transform="translate(-53.807 -78.977)" fill="#fff"/><path d="M20.944,103.82h-.37l.173.157c0,.372-.005.744,0,1.116l-.14.175c.31,0,.622,0,.933,0,.019-.166.039-.333.055-.5-.114.161-.224.423-.442.423a.306.306,0,0,1-.1-.018,2.208,2.208,0,0,1-.018-.643l.284.352c-.01-.233-.012-.465,0-.7l-.284.335c-.011-.208-.008-.416,0-.625h.038c.253,0,.38.2.465.42,0-.166-.007-.332-.008-.5-.2,0-.39,0-.585,0" transform="translate(-15.709 -79.27)" fill="#fff"/><path d="M37.966,103.585l.181.252c.024.226.012.457-.258.5.029-.214-.085-.5.122-.646a2.178,2.178,0,0,0-.489-.1,3.428,3.428,0,0,1,.1,1.322l-.2.153c.2,0,.41,0,.614,0a.908.908,0,0,1-.162-.7,6.952,6.952,0,0,1,.355.693l.365,0a5.789,5.789,0,0,1-.375-.688.505.505,0,0,0,.2-.542c-.052-.208-.3-.2-.463-.252" transform="translate(-28.578 -79.09)" fill="#fff"/><path d="M62.211,103.714H61.25c0,.166,0,.332,0,.5a1.09,1.09,0,0,1,.315-.457,9.609,9.609,0,0,1,.006,1.21l-.146.2.3,0,.3,0-.148-.2a11.1,11.1,0,0,1,0-1.2c.186.092.237.288.3.468.009-.172.017-.344.025-.516" transform="translate(-46.766 -79.189)" fill="#fff"/><path d="M11.375,113.335l-.273.214h.032c.157,0,.314,0,.47,0s.312,0,.466,0c.2,0,.4,0,.6-.015l.135-.2c-.165,0-.329,0-.494,0h-.3c-.211,0-.424,0-.636-.005" transform="translate(-8.477 -86.535)" fill="#fff"/><path d="M18.582,113.57a.167.167,0,0,0-.085.025c-.217.079-.1.384.071.384a.151.151,0,0,0,.088-.028c.224-.067.1-.38-.074-.38" transform="translate(-14.033 -86.714)" fill="#fff"/><path d="M66.744,113.593c-.1,0-.2.107-.28.153.085.089.139.233.275.261.134-.057.273-.235.116-.355a.146.146,0,0,0-.111-.059" transform="translate(-50.747 -86.732)" fill="#fff"/><path d="M7.19,135.445c-.038-.165-.069-.332-.1-.5l.349.083c.022.178-.152.289-.251.415m7.986,0c-.023-.166-.043-.332-.055-.5l.358.085a.867.867,0,0,1-.3.413m-1.153-.021c-.1-.124-.19-.25-.28-.379a1.37,1.37,0,0,1,.418-.1c-.043.16-.082.321-.138.478m-4.548.6A1.387,1.387,0,0,1,9.8,134.93a1.052,1.052,0,0,1,.791-.333,1.09,1.09,0,0,1,.907.449,1.649,1.649,0,0,1,.243.974,1.9,1.9,0,0,1,.37-.037,1.168,1.168,0,0,1,.87.329,1.426,1.426,0,0,1,.271,1.186,3.072,3.072,0,0,1,.516-.057,1.044,1.044,0,0,1,.534.128,1.071,1.071,0,0,1,.517,1.034,20.675,20.675,0,0,1-4.208,3.4,20.517,20.517,0,0,1-4.181-3.346.913.913,0,0,1,.271-.937,1.079,1.079,0,0,1,.758-.277,1.738,1.738,0,0,1,.48.072,1.547,1.547,0,0,1,.246-1.158,1.132,1.132,0,0,1,.9-.369,1.956,1.956,0,0,1,.384.04m4.068.554c-.133-.15-.354-.377-.2-.579.225-.13.524-.139.692-.357a2.584,2.584,0,0,0,.378-.953c.035-.111.129-.127.229-.127l.059,0c.019,0,.04,0,.058,0a.353.353,0,0,0,.046,0,2.968,2.968,0,0,0,.442,1.117c.187.239.6.144.733.442a1.92,1.92,0,0,1-.231.458c-.232-.158-.363-.454-.645-.532.122.294.435.5.46.83-.031.207-.236.218-.411.218h-.094a2.473,2.473,0,0,0-.246-.834,2.221,2.221,0,0,0,.1.9c.051.2-.13.318-.3.318a.252.252,0,0,1-.274-.213c-.014-.337.223-.662.079-1a4.132,4.132,0,0,0-.218.783.368.368,0,0,1-.206.061.329.329,0,0,1-.279-.131c-.094-.39.348-.612.425-.964a3.737,3.737,0,0,0-.6.568m-7.308-1.214a3.475,3.475,0,0,1,.177-.69.228.228,0,0,1,.21-.126.213.213,0,0,1,.206.134,2.881,2.881,0,0,0,.378.959c.167.255.538.188.731.407.076.2-.1.386-.23.524a4.286,4.286,0,0,0-.589-.561c.063.329.41.527.44.861a.289.289,0,0,1-.306.232.416.416,0,0,1-.2-.054,5.849,5.849,0,0,0-.209-.78,1.577,1.577,0,0,0,.075.9.276.276,0,0,1-.3.31.365.365,0,0,1-.226-.077c-.168-.374.2-.751.046-1.139a2.7,2.7,0,0,0-.227.768.317.317,0,0,1-.21.073c-.175,0-.351-.123-.294-.329.088-.276.333-.475.444-.744-.246.089-.37.331-.563.491a.121.121,0,0,1-.036,0c-.174,0-.224-.269-.274-.4.042-.2.281-.2.429-.275.229-.054.36-.26.517-.415l-.3-.123-.154-.325.345-.039a.736.736,0,0,0,.132.415m3.761-4.1c-.089-.117-.233-.236-.2-.4l.335-.063c-.04.15.018.368-.136.463m-.43,1.136c-.2-.023-.268-.291-.283-.461.184-.237.561-.164.738-.412a2.356,2.356,0,0,0,.372-.927.246.246,0,0,1,.244-.184.194.194,0,0,1,.178.105,2.8,2.8,0,0,1,.18.625l.023,0c.143,0,.093-.234.136-.331l.345.085-.242.327-.154.117c.166.367.594.386.9.577-.1.153-.093.477-.325.477H11.67c-.2-.156-.315-.417-.577-.481.129.32.547.558.431.941a.3.3,0,0,1-.24.1,1.109,1.109,0,0,1-.264-.044,1.692,1.692,0,0,0-.209-.782,2.132,2.132,0,0,0,.111.942.3.3,0,0,1-.589.011c.022-.315.212-.631.061-.941a3.161,3.161,0,0,0-.177.778.679.679,0,0,1-.221.039.284.284,0,0,1-.32-.251c.075-.3.339-.511.465-.793-.253.076-.378.327-.575.481M7,127.177c-.033-.167-.058-.334-.079-.5l.384.091a1.4,1.4,0,0,1-.3.411m7-.019-.221-.358c.059-.153.25-.093.378-.125a1.827,1.827,0,0,1-.157.482m-8.188-.035a.661.661,0,0,1-.209-.378l.339-.089c-.037.15.039.382-.13.467m7.723,1.19c-.124-.154-.348-.376-.2-.581.267-.14.624-.163.778-.461.223-.284.146-.708.4-.966l.3-.005a3.628,3.628,0,0,1,.166.691l.161.063.022-.363.327.066c-.034.252-.281.291-.427.443.126.13.234.306.421.36.17.084.431.084.5.295a2.272,2.272,0,0,1-.233.46c-.227-.167-.37-.439-.64-.543.111.3.436.508.454.842-.035.2-.212.219-.38.219l-.125,0a2.737,2.737,0,0,0-.238-.838,2.147,2.147,0,0,0,.1.912c.041.2-.13.309-.3.309a.257.257,0,0,1-.278-.223c-.022-.327.245-.658.059-.981a6.7,6.7,0,0,0-.2.778.539.539,0,0,1-.216.049.33.33,0,0,1-.271-.123c-.089-.393.345-.615.428-.966a3.416,3.416,0,0,0-.6.567m-8.173-.007a.6.6,0,0,1-.253-.526c.215-.2.575-.153.748-.408a2.915,2.915,0,0,0,.368-.94.211.211,0,0,1,.214-.148.221.221,0,0,1,.212.133,2.8,2.8,0,0,0,.37.945c.173.252.527.222.744.411.051.185-.09.354-.18.5-.283-.064-.385-.418-.665-.508.1.273.358.469.441.749.057.205-.117.326-.293.326a.345.345,0,0,1-.216-.072,2.345,2.345,0,0,0-.22-.765c-.154.386.214.765.043,1.136a.344.344,0,0,1-.22.076c-.173,0-.342-.114-.306-.312a2.34,2.34,0,0,0,.108-.885,2.049,2.049,0,0,0-.244.768.338.338,0,0,1-.193.056c-.18,0-.358-.122-.311-.326.091-.281.358-.471.443-.76a2.834,2.834,0,0,0-.591.551m12.145-.38a1.526,1.526,0,0,1,.3-1.147,1.585,1.585,0,0,1,1.133-.33,1.426,1.426,0,0,1,.515-1.233A.727.727,0,0,1,20,125.05c.048,0,.1,0,.143,0h.22a20.162,20.162,0,0,1-3.426,10.935,1.331,1.331,0,0,1-.738-.41,1.485,1.485,0,0,1-.207-1.025H15.9a1.432,1.432,0,0,1-.963-.285,1.3,1.3,0,0,1-.358-1.169c-.078,0-.156.007-.234.007a1.209,1.209,0,0,1-.651-.152,1.09,1.09,0,0,1-.255-1.71,1.656,1.656,0,0,1,1.16-.4,1.5,1.5,0,0,1,.291-1.087,1.474,1.474,0,0,1,1.141-.338h.028a1.575,1.575,0,0,1,.237-1.1,1.4,1.4,0,0,1,1.141-.387h.077M.935,125.055l.147,0c.048,0,.1,0,.147,0a.748.748,0,0,1,.476.127,1.338,1.338,0,0,1,.56,1.271,1.537,1.537,0,0,1,1.156.345,1.507,1.507,0,0,1,.288,1.128,1.6,1.6,0,0,1,1.184.348,1.6,1.6,0,0,1,.29,1.148h.07a1.407,1.407,0,0,1,1.038.3,1.5,1.5,0,0,1,.348,1.125,1.827,1.827,0,0,1,1.053.315,1.1,1.1,0,0,1-.029,1.719,1.316,1.316,0,0,1-.832.234c-.062,0-.123,0-.184-.006a1.354,1.354,0,0,1-.312,1.118,1.286,1.286,0,0,1-.964.331l-.124,0A1.55,1.55,0,0,1,5,135.626a1.283,1.283,0,0,1-.739.355A20.337,20.337,0,0,1,.853,125.054H.935M14.3,124.6a1.349,1.349,0,0,1,.172,1.307,1.66,1.66,0,0,1-1.354.583,1.516,1.516,0,0,1-.343,1.149,1.97,1.97,0,0,1-1.182.323,1.775,1.775,0,0,1-.13.937,1.1,1.1,0,0,1-1.866-.018,1.847,1.847,0,0,1-.13-.926,1.887,1.887,0,0,1-1.183-.323A1.6,1.6,0,0,1,7.94,126.5a1.67,1.67,0,0,1-1.342-.587,1.339,1.339,0,0,1,.171-1.308q-1.212,0-2.425,0H.407a20.562,20.562,0,0,0,4.724,13.3,21.384,21.384,0,0,0,5.476,4.627,20.694,20.694,0,0,0,7.778-8.049,20.734,20.734,0,0,0,2.422-9.882H16.779q-1.239,0-2.478,0" transform="translate(-0.31 -95.136)" fill="#fff"/><path d="M22.735,133.288l-.34.09a.676.676,0,0,0,.209.378c.169-.085.1-.316.131-.468" transform="translate(-17.099 -101.769)" fill="#fff"/><path d="M57.35,133.382c-.127.029-.319-.03-.378.124l.221.358a1.9,1.9,0,0,0,.157-.482" transform="translate(-43.5 -101.841)" fill="#fff"/><path d="M27.972,133.382c.021.166.048.332.079.5a1.385,1.385,0,0,0,.3-.411Z" transform="translate(-21.357 -101.841)" fill="#fff"/><path d="M40.44,150.812l-.335.063c-.033.162.111.283.2.4.154-.1.1-.31.136-.462" transform="translate(-30.618 -115.149)" fill="#fff"/><path d="M28.687,168.355q.042.249.1.5c.1-.124.272-.236.251-.415Z" transform="translate(-21.903 -128.544)" fill="#fff"/><path d="M57.236,168.331a1.374,1.374,0,0,0-.416.1c.09.129.181.255.278.38.055-.156.093-.318.138-.478" transform="translate(-43.384 -128.526)" fill="#fff"/><path d="M62.637,168.335c.013.166.032.332.055.5a.862.862,0,0,0,.3-.415Z" transform="translate(-47.825 -128.529)" fill="#fff"/><path d="M273.939,184.445a3.309,3.309,0,0,0-2.556,1.073,2.882,2.882,0,0,0-.47,2.585,2.123,2.123,0,0,0,1.027,1.256c1.024.6,2.264.637,3.315,1.17a.741.741,0,0,1,.238,1.158,1.5,1.5,0,0,1-1.119.379c-.106,0-.214-.006-.317-.014a4.525,4.525,0,0,1-2.43-1.1c-.394.491-.816.961-1.2,1.458a5.947,5.947,0,0,0,3.873,1.458,5.464,5.464,0,0,0,1.163-.123,2.748,2.748,0,0,0,2.077-1.724,2.68,2.68,0,0,0-.443-2.682,5.085,5.085,0,0,0-2.369-1.115,6.22,6.22,0,0,1-1.569-.547.734.734,0,0,1-.091-1.156,1.423,1.423,0,0,1,.937-.279c.025,0,.053,0,.079,0a4.607,4.607,0,0,1,2.291.905q.536-.765,1.062-1.541a5.326,5.326,0,0,0-3.3-1.16h-.2Z" transform="translate(-206.478 -140.829)" fill="#fff"/><path d="M415.912,184.343c-.055,0-.111,0-.165,0l-.121,0a4.718,4.718,0,0,0-3.758,1.875,4.971,4.971,0,0,0-.723,4.362,4.4,4.4,0,0,0,2.594,2.857,5.5,5.5,0,0,0,2.02.377,6.042,6.042,0,0,0,3.9-1.436c0-1.338,0-2.677,0-4.015q-1,0-2,0H415.67q0,.88,0,1.759h.722l.451,0c.278,0,.561,0,.84-.005.008.439.006.878,0,1.315a3.409,3.409,0,0,1-1.824.531,2.848,2.848,0,0,1-1.678-.516,2.984,2.984,0,0,1-1.084-2.882,2.709,2.709,0,0,1,2.533-2.347l.108,0h.112a3.517,3.517,0,0,1,2.222.927c.422-.522.86-1.033,1.283-1.557a8.014,8.014,0,0,0-.878-.613,5.081,5.081,0,0,0-2.567-.634" transform="translate(-313.759 -140.751)" fill="#fff"/><path d="M104.213,186.823l.429,0h.457c.18,0,.361,0,.541,0a1.361,1.361,0,0,1,.419,2.671,4.364,4.364,0,0,1-.956.087c-.149,0-.3,0-.448-.008s-.3-.006-.454-.006c-.106,0-.211,0-.318.006v-2.754c.111,0,.22,0,.331,0m.119-1.855h-2.493c0,3.058-.007,6.115.006,9.171q.42,0,.841,0h1.2v-2.755H105.1c.236,0,.475,0,.713-.006a3.56,3.56,0,0,0,2.793-1.444,3.41,3.41,0,0,0-.044-3.623,3.448,3.448,0,0,0-2.827-1.339q-.7,0-1.409,0" transform="translate(-77.756 -141.228)" fill="#fff"/><path d="M145.183,184.968h-1.124q0,2.563,0,5.127a2.975,2.975,0,0,1-.236,1.328,1.839,1.839,0,0,1-1.713.987,2.032,2.032,0,0,1-1.328-.467,2.349,2.349,0,0,1-.643-1.758c0-1.736,0-3.475,0-5.213-.322,0-.646,0-.967,0l-1.079,0c0,1.648,0,3.3,0,4.943a5.6,5.6,0,0,0,.418,2.4,3.163,3.163,0,0,0,1.707,1.633,4.93,4.93,0,0,0,1.834.332,6.547,6.547,0,0,0,.872-.061,3.55,3.55,0,0,0,2.351-1.266,4.728,4.728,0,0,0,.823-3.046c0-1.644-.007-3.287,0-4.929-.308-.008-.616-.009-.924-.009" transform="translate(-105.441 -141.228)" fill="#fff"/><path d="M182.48,192.356c-.008-.665,0-1.332,0-2q1.149,0,2.3,0a1.991,1.991,0,0,1,1.158.288.947.947,0,0,1,.2,1.194,1.412,1.412,0,0,1-1.183.507c-.284.005-.571.007-.857.007l-.545,0c-.179,0-.357,0-.536,0s-.356,0-.536,0m.314-5.605c.164,0,.328,0,.493,0h.53c.194,0,.389,0,.584,0a1.777,1.777,0,0,1,1.057.286.891.891,0,0,1-.017,1.341,1.953,1.953,0,0,1-1.13.292c-.21,0-.42,0-.632,0h-.432c-.158,0-.315,0-.472,0h-.3q0-.962,0-1.923c.1,0,.212,0,.317,0m1.269-1.783h-3.581q0,4.582,0,9.163.992.006,1.984,0h2.5a4.01,4.01,0,0,0,2.624-.825,2.49,2.49,0,0,0,.551-2.606,2.418,2.418,0,0,0-1.536-1.36,4.194,4.194,0,0,0,.53-.4,2.274,2.274,0,0,0-.16-3.323,3.585,3.585,0,0,0-2.2-.654h-.716" transform="translate(-137.802 -141.228)" fill="#fff"/><path d="M220.351,184.968c0,3.058-.013,6.115.008,9.174.8-.006,1.593-.007,2.39-.007h2.57q.816,0,1.634,0c0-.618,0-1.233,0-1.849h-4.559c0-2.439,0-4.875,0-7.312-.268,0-.534,0-.8,0h-1.241" transform="translate(-168.242 -141.228)" fill="#fff"/><path d="M256.115,184.96c-.373,0-.746.005-1.119.005.011,3.056-.01,6.113.011,9.17.289,0,.579-.006.868-.006h1.139c.009-3.054-.007-6.108.009-9.158-.3-.009-.606-.013-.908-.013" transform="translate(-194.697 -141.222)" fill="#fff"/><path d="M315.023,184.968c-.293,0-.585,0-.878.009.013,1.2,0,2.4.005,3.6h-3.68c0-1.2,0-2.405,0-3.606-.318,0-.637,0-.953,0h-1.092q0,4.581,0,9.162c.223,0,.448.005.672.005h.647c.239,0,.477,0,.718.005.018-1.229,0-2.46.008-3.687h2.321l1.355,0c.009,1.227,0,2.455,0,3.683h2.043q0-4.585,0-9.167h-1.171" transform="translate(-235.492 -141.228)" fill="#fff"/><path d="M351.839,184.968h-1.02q0,4.582,0,9.162c.329,0,.66.006.99.006.353,0,.7,0,1.056,0q-.008-4.581,0-9.162h-1.022" transform="translate(-267.859 -141.228)" fill="#fff"/><path d="M375.145,184.968v5.61q-2.132-2.806-4.269-5.609H369c0,3.058-.008,6.114.006,9.172.238,0,.477,0,.717,0h.566c.244,0,.488,0,.731,0,0-1.919,0-3.837,0-5.757,1.053,1.354,2.084,2.729,3.127,4.09.441.547.826,1.151,1.308,1.665.214.007.427.009.643.009.352,0,.7-.007,1.055-.008q-.011-4.581,0-9.159c-.351,0-.7,0-1.054,0h-.942Z" transform="translate(-281.737 -141.228)" fill="#fff"/></g></svg>