<svg id="Grupo_4658" data-name="Grupo 4658" xmlns="http://www.w3.org/2000/svg" xmlns:xlink="http://www.w3.org/1999/xlink" width="29.622" height="50.641" viewBox="0 0 29.622 50.641">
  <defs>
    <clipPath id="clip-path">
      <rect id="Retângulo_25" data-name="Retângulo 25" width="29.622" height="50.641" fill="#989ba6"/>
    </clipPath>
  </defs>
  <g id="Grupo_4657" data-name="Grupo 4657" clip-path="url(#clip-path)">
    <path id="Caminho_557" data-name="Caminho 557" d="M4.124,50.641a13.529,13.529,0,0,1-2.167-.9A3.958,3.958,0,0,1,.035,46.268c0-.362,0-.725,0-1.087C.032,31.768.077,18.356,0,4.944A4.8,4.8,0,0,1,4.968,0c6.588.038,13.176.01,19.765.015A4.692,4.692,0,0,1,29.325,2.91a4.836,4.836,0,0,1,.284,1.638q.023,20.785.008,41.571A4.445,4.445,0,0,1,25.9,50.538c-.126.025-.249.069-.373.1ZM8.981,1.6c-1.464,0-2.865-.017-4.266,0a2.971,2.971,0,0,0-3.1,3.163q0,20.564,0,41.128a2.956,2.956,0,0,0,3.1,3.158q10.106.025,20.211,0a2.958,2.958,0,0,0,3.1-3.155q0-20.564,0-41.128A2.981,2.981,0,0,0,24.889,1.6c-1.436-.017-2.873,0-4.31,0-.127,0-.255.017-.426.03,0,.548.013,1.072,0,1.6a.792.792,0,0,1-.9.884q-4.706.012-9.412,0a.775.775,0,0,1-.858-.864c-.012-.525,0-1.051,0-1.643" transform="translate(0.001 0)" fill="#989ba6"/>
    <path id="Caminho_558" data-name="Caminho 558" d="M73.691,340.852q-2.4,0-4.8,0c-.631,0-.971-.289-.964-.8.007-.487.345-.779.94-.779q4.871-.006,9.742,0c.6,0,.932.29.939.78.007.509-.335.8-.964.8q-2.448,0-4.9,0" transform="translate(-58.958 -294.459)" fill="#989ba6"/>
  </g>
</svg>
