<svg id="Grupo_4655" data-name="Grupo 4655" xmlns="http://www.w3.org/2000/svg" xmlns:xlink="http://www.w3.org/1999/xlink" width="26.608" height="34.075" viewBox="0 0 26.608 34.075">
  <defs>
    <clipPath id="clip-path">
      <rect id="Retângulo_23" data-name="Retângulo 23" width="26.608" height="34.075" fill="#989ba6"/>
    </clipPath>
  </defs>
  <g id="Grupo_4654" data-name="Grupo 4654" clip-path="url(#clip-path)">
    <path id="Caminho_554" data-name="Caminho 554" d="M11.707,188.278c-.5-.041-.99-.087-1.486-.121A48,48,0,0,1,.328,186.4c-.268-.076-.327-.2-.327-.463q.012-7.185,0-14.369a.39.39,0,0,1,.338-.455,49.114,49.114,0,0,1,9-1.683,43.959,43.959,0,0,1,9.457.157,48.443,48.443,0,0,1,7.478,1.524.392.392,0,0,1,.336.459q-.014,7.185,0,14.369a.409.409,0,0,1-.36.474,47.473,47.473,0,0,1-9,1.673c-.782.067-1.565.126-2.348.189Zm2.593-8.471a3.244,3.244,0,1,0-1.984,0v3.232H14.3Z" transform="translate(0 -154.203)" fill="#989ba6"/>
    <path id="Caminho_555" data-name="Caminho 555" d="M35,13.4l-4.551.8a.338.338,0,0,1-.02-.087,43.2,43.2,0,0,1,.086-4.651A10.078,10.078,0,0,1,37.49.634,10.493,10.493,0,0,1,51.347,8.369a9.894,9.894,0,0,1,.228,1.91c.034,1.306.01,2.614.01,3.921l-4.571-.8c0-.117,0-.257,0-.4a32.31,32.31,0,0,0-.1-3.386,5.994,5.994,0,0,0-11.755-.4A8.816,8.816,0,0,0,35,10.832C34.977,11.694,35,12.557,35,13.4" transform="translate(-27.701 0)" fill="#989ba6"/>
    <path id="Caminho_556" data-name="Caminho 556" d="M136.842,241.538a1.25,1.25,0,1,1,1.246-1.254,1.268,1.268,0,0,1-1.246,1.254" transform="translate(-123.535 -217.788)" fill="#989ba6"/>
  </g>
</svg>
